<?xml version="1.0" encoding="utf-8"?>
<!-- Generator: Adobe Illustrator 16.0.2, SVG Export Plug-In . SVG Version: 6.00 Build 0)  -->
<!DOCTYPE svg PUBLIC "-//W3C//DTD SVG 1.1//EN" "http://www.w3.org/Graphics/SVG/1.1/DTD/svg11.dtd">
<svg version="1.1" id="Layer_1" xmlns="http://www.w3.org/2000/svg" xmlns:xlink="http://www.w3.org/1999/xlink" x="0px" y="0px"
	 width="24px" height="24px" viewBox="0.917 2.125 24 24" enable-background="new 0.917 2.125 24 24" xml:space="preserve">
<g>
	<path d="M12.917,6.12l2.121,4.404l0.551,1.146l1.258,0.187l4.859,0.722l-3.556,3.548l-0.876,0.875l0.204,1.221l0.828,4.938
		l-4.252-2.289l-1.138-0.612L11.78,20.87l-4.252,2.289l0.826-4.938l0.204-1.221l-0.875-0.874l-3.555-3.549l4.86-0.722l1.257-0.187
		l0.552-1.146L12.917,6.12 M12.917,2.876c-0.672,0-1.283,0.378-1.569,0.97L8.634,9.482L2.389,10.41
		c-0.641,0.095-1.174,0.534-1.381,1.133c-0.207,0.6-0.05,1.262,0.403,1.713l4.576,4.568l-1.061,6.339
		c-0.108,0.639,0.168,1.278,0.71,1.652c0.298,0.205,0.648,0.309,0.999,0.309c0.288,0,0.577-0.07,0.839-0.211l5.444-2.931
		l5.445,2.931c0.262,0.141,0.551,0.211,0.837,0.211c0.351,0,0.7-0.104,1-0.309c0.542-0.374,0.817-1.014,0.71-1.652l-1.063-6.339
		l4.578-4.568c0.452-0.452,0.608-1.113,0.402-1.713c-0.207-0.6-0.74-1.038-1.383-1.133L17.2,9.482l-2.714-5.636
		C14.2,3.254,13.59,2.876,12.917,2.876L12.917,2.876z"/>
</g>
</svg>
